<svg width="800" height="600" version="1.1" xmlns="http://www.w3.org/2000/svg" desc="Created with imagetracer.js version 1.2.6" ><path fill="rgb(21,85,255)" stroke="rgb(21,85,255)" stroke-width="1" opacity="1" d="M 170.5 253 L 183.5 253 L 191.5 255 Q 204.2 259.3 212 268.5 Q 218.5 276 222 286.5 L 223 291.5 L 223 308.5 Q 219 324.5 208.5 334 Q 196.6 347.1 170.5 346 Q 149.5 342 139 327.5 Q 128.6 315.9 130 292.5 Q 134.4 272.4 148.5 262 L 156.5 257 L 170.5 253 Z M 166 262 L 156 267 L 150 274 L 148 281 Q 148 287 151 292 L 161 301 L 186 315 L 193 323 L 194 327 L 192 333 L 191 335 L 197 333 Q 203 330 204 322 L 201 312 L 191 303 L 168 290 L 159 281 Q 158 272 161 269 L 167 264 Q 168 261 166 262 Z M 178 264 L 181 270 Q 182 274 180 276 L 181 288 L 186 291 L 191 290 L 192 288 L 190 283 Q 189 279 192 278 L 194 279 L 197 286 L 202 287 Q 206 286 205 279 L 198 275 L 196 272 L 200 273 L 203 273 L 202 271 L 196 266 L 187 266 L 178 264 Z M 144 312 L 144 317 L 150 328 L 163 336 L 173 338 L 178 337 Q 180 338 179 335 L 169 331 L 173 325 L 173 321 L 163 324 L 159 313 L 154 319 Q 155 321 153 320 L 147 314 Q 148 311 144 312 Z " /><path fill="rgb(21,85,255)" stroke="rgb(21,85,255)" stroke-width="1" opacity="1" d="M 330 264 L 343 264 L 343 271.5 L 343.5 272 L 360 272 L 360 280 L 352 280.5 L 355 284.5 L 356 289.5 L 353 298.5 L 349.5 302 Q 343.3 306.8 330.5 305 Q 323.3 303.2 320 297.5 Q 316.7 293.8 318 285.5 L 321 280.5 L 314 280 L 314 272 L 330.5 272 Q 331.5 272 331 267.5 L 330 264 Z M 336 280 L 333 281 L 329 286 Q 328 295 334 297 L 342 296 L 345 290 L 344 285 Q 342 280 336 280 Z " /><path fill="rgb(21,85,255)" stroke="rgb(21,85,255)" stroke-width="1" opacity="1" d="M 293 266 L 305.5 266 L 306 266.5 L 306 311 L 295.5 311 L 295 310.5 L 295 270.5 Q 292.3 269.4 293 266 Z " /><path fill="rgb(21,85,255)" stroke="rgb(21,85,255)" stroke-width="1" opacity="1" d="M 363 266 L 377 266 L 377 282.5 L 377.5 283 L 385 283 L 385 291 L 377 291 L 377 312 L 365 312 L 365 270.5 L 363 266 Z " /><path fill="rgb(21,85,255)" stroke="rgb(21,85,255)" stroke-width="1" opacity="1" d="M 507 266 L 520 266 L 520 288.5 L 520.5 289 L 530 289 L 530 297 L 520.5 297 L 520 297.5 L 520 334 L 509 334 L 509 270.5 Q 506.3 269.4 507 266 Z " /><path fill="rgb(21,85,255)" stroke="rgb(21,85,255)" stroke-width="1" opacity="1" d="M 656 266 L 668.5 266 L 669 266.5 L 669 315 L 658 315 L 657.5 310 L 641 310 L 641 303.5 L 642.5 302 L 658 302 L 658 270.5 L 656 266 Z " /><path fill="rgb(21,85,255)" stroke="rgb(21,85,255)" stroke-width="1" opacity="1" d="M 258 267 L 272 267 L 272 281.5 L 279.5 290 L 289 294 L 285.5 301 Q 272.4 299.1 266.5 290 Q 259.3 299.8 246.5 304 L 242 297.5 Q 251.2 293.7 257 286.5 Q 261.5 282 260 271.5 L 258 267 Z " /><path fill="rgb(21,85,255)" stroke="rgb(21,85,255)" stroke-width="1" opacity="1" d="M 394.5 267 L 446.5 267 L 448 268.5 Q 448.8 274.8 447.5 275 L 407.5 275 L 407 275.5 L 407 281 L 446.5 281 L 447 281.5 L 447 289 L 407.5 289 L 407 294 L 447.5 294 L 449 295.5 Q 449.8 301.8 448.5 302 L 401.5 302 L 397 299.5 L 395 295.5 L 395 271.5 L 393 268.5 L 394.5 267 Z " /><path fill="rgb(21,85,255)" stroke="rgb(21,85,255)" stroke-width="1" opacity="1" d="M 540 267 L 592.5 267 L 593 267.5 L 593 275 L 574 275.5 L 582.5 282 L 597 286.5 L 593.5 293 L 579.5 290 L 565.5 283 Q 557 292.5 539.5 293 L 536 286 Q 551.7 285 560 275.5 L 541.5 275 L 540 273.5 L 540 267 Z " /><path fill="rgb(21,85,255)" stroke="rgb(21,85,255)" stroke-width="1" opacity="1" d="M 610 268 L 645.5 268 L 650 271.5 L 649 291 L 655 291 L 655 296.5 L 648.5 299 L 633 299 L 633 310 L 622 310 L 622 299 L 604 299 L 604 291 L 637.5 291 L 638 290.5 L 638 282.5 L 639 277.5 L 637.5 276 L 610 276 L 610 268 Z " /><path fill="rgb(21,85,255)" stroke="rgb(21,85,255)" stroke-width="1" opacity="1" d="M 462 269 L 501.5 269 L 502 269.5 L 502 277 L 488 277 L 488 294.5 Q 491.4 306.1 500.5 312 L 505 314 L 500.5 322 Q 491.1 318.4 486 310.5 L 482.5 305 Q 478.2 314.2 470.5 320 L 463.5 324 L 458 317.5 L 472 304.5 L 476 294.5 L 476 277 L 462 277 L 462 269 Z " /><path fill="rgb(21,85,255)" stroke="rgb(21,85,255)" stroke-width="1" opacity="1" d="M 532 296 L 600.5 296 L 601 296.5 L 601 304 L 532.5 304 L 532 303.5 L 532 296 Z " /><path fill="rgb(21,85,255)" stroke="rgb(21,85,255)" stroke-width="1" opacity="1" d="M 252 307 L 265 307 L 265 322.5 L 267.5 325 L 308 325 Q 309.8 331.1 306.5 333 L 261.5 333 L 255 329.5 L 254 327.5 L 254 311.5 L 252 307 Z " /><path fill="rgb(21,85,255)" stroke="rgb(21,85,255)" stroke-width="1" opacity="1" d="M 556.5 307 L 577.5 307 L 588.5 311 L 593 315.5 L 594 323.5 L 589.5 330 L 575.5 335 L 558.5 335 L 547.5 332 L 541 326.5 L 540 317.5 L 545.5 311 L 556.5 307 Z M 563 314 L 555 316 Q 550 317 551 323 L 558 327 L 576 327 L 581 325 Q 584 324 583 320 L 578 315 L 563 314 Z " /><path fill="rgb(21,85,255)" stroke="rgb(21,85,255)" stroke-width="1" opacity="1" d="M 387 308 L 455.5 308 L 456 308.5 L 456 316 L 427 316 L 427 334 L 416 334 L 416 316 L 387.5 316 L 387 315.5 L 387 308 Z " /><path fill="rgb(21,85,255)" stroke="rgb(21,85,255)" stroke-width="1" opacity="1" d="M 323 310 L 336 310 L 336 322.5 L 338.5 325 L 378 325 Q 379.8 331.1 376.5 333 L 331.5 333 L 326 329.5 L 325 327.5 L 325 314.5 Q 322.2 313.4 323 310 Z " /><path fill="rgb(21,85,255)" stroke="rgb(21,85,255)" stroke-width="1" opacity="1" d="M 613 314 L 627 314 L 627 324.5 L 627.5 325 L 669.5 325 L 670 325.5 L 670 333 L 620.5 333 L 616 329.5 Q 613.3 325.7 615 317.5 L 613 314 Z " /><path fill="rgb(254,254,255)" stroke="rgb(254,254,255)" stroke-width="1" opacity="0.996078431372549" d="M 167.5 253 L 170 253.5 L 167.5 254 L 167.5 253 Z " /><path fill="rgb(254,254,255)" stroke="rgb(254,254,255)" stroke-width="1" opacity="0.996078431372549" d="M 155.5 257 L 154.5 259 L 155.5 257 Z " /><path fill="rgb(254,254,255)" stroke="rgb(254,254,255)" stroke-width="1" opacity="0.996078431372549" d="M 150.5 260 L 149.5 262 L 150.5 260 Z " /><path fill="rgb(254,254,255)" stroke="rgb(254,254,255)" stroke-width="1" opacity="0.996078431372549" d="M 165.5 262 Q 167.8 261.3 167 263.5 L 165 264.5 L 165.5 262 Z " /><path fill="rgb(254,254,255)" stroke="rgb(254,254,255)" stroke-width="1" opacity="0.996078431372549" d="M 205.5 262 L 206.5 264 L 205.5 262 Z " /><path fill="rgb(254,254,255)" stroke="rgb(254,254,255)" stroke-width="1" opacity="0.996078431372549" d="M 146.5 263 L 140.5 270 L 146.5 263 Z " /><path fill="rgb(254,254,255)" stroke="rgb(254,254,255)" stroke-width="1" opacity="0.996078431372549" d="M 178.5 265 L 179.5 267 L 178.5 265 Z " /><path fill="rgb(254,254,255)" stroke="rgb(254,254,255)" stroke-width="1" opacity="0.996078431372549" d="M 306.5 266 L 307 310.5 L 306 310.5 L 306.5 266 Z " /><path fill="rgb(254,254,255)" stroke="rgb(254,254,255)" stroke-width="1" opacity="0.996078431372549" d="M 520.5 266 L 521 288 L 530 288.5 L 520 289 L 520.5 266 Z " /><path fill="rgb(254,254,255)" stroke="rgb(254,254,255)" stroke-width="1" opacity="0.996078431372549" d="M 540.5 266 L 593.5 266 L 594 266.5 L 594 274.5 L 593 274.5 L 593 267.5 L 592.5 267 L 540.5 267 L 540.5 266 Z " /><path fill="rgb(254,254,255)" stroke="rgb(254,254,255)" stroke-width="1" opacity="0.996078431372549" d="M 655.5 266 L 657 268.5 L 655 267.5 L 655.5 266 Z " /><path fill="rgb(254,254,255)" stroke="rgb(254,254,255)" stroke-width="1" opacity="0.996078431372549" d="M 669.5 266 L 670 316 L 658.5 316 L 657 314.5 L 657.5 310 L 658 315 L 668.5 315 L 669 314.5 L 669.5 266 Z " /><path fill="rgb(254,254,255)" stroke="rgb(254,254,255)" stroke-width="1" opacity="0.996078431372549" d="M 155.5 267 L 152.5 271 L 155.5 267 Z " /><path fill="rgb(254,254,255)" stroke="rgb(254,254,255)" stroke-width="1" opacity="0.996078431372549" d="M 198.5 267 L 199.5 269 L 198.5 267 Z " /><path fill="rgb(254,254,255)" stroke="rgb(254,254,255)" stroke-width="1" opacity="0.996078431372549" d="M 393.5 267 L 392.5 269 L 393.5 267 Z " /><path fill="rgb(254,254,255)" stroke="rgb(254,254,255)" stroke-width="1" opacity="0.996078431372549" d="M 257.5 268 L 258.5 270 L 257.5 268 Z " /><path fill="rgb(254,254,255)" stroke="rgb(254,254,255)" stroke-width="1" opacity="0.996078431372549" d="M 461 268 L 502 268.5 L 462 269 L 461.5 277 L 461 268 Z " /><path fill="rgb(254,254,255)" stroke="rgb(254,254,255)" stroke-width="1" opacity="0.996078431372549" d="M 609.5 268 L 610 275.5 L 609 275.5 L 609.5 268 Z " /><path fill="rgb(254,254,255)" stroke="rgb(254,254,255)" stroke-width="1" opacity="0.996078431372549" d="M 212.5 269 L 214.5 272 L 212.5 269 Z " /><path fill="rgb(254,254,255)" stroke="rgb(254,254,255)" stroke-width="1" opacity="0.996078431372549" d="M 507.5 269 L 509 270.5 L 509 333.5 L 508 333.5 L 508 270.5 L 507.5 269 Z " /><path fill="rgb(254,254,255)" stroke="rgb(254,254,255)" stroke-width="1" opacity="0.996078431372549" d="M 648.5 269 L 649.5 271 L 648.5 269 Z " /><path fill="rgb(254,254,255)" stroke="rgb(254,254,255)" stroke-width="1" opacity="0.996078431372549" d="M 294.5 270 L 295 310.5 L 294 310.5 L 294.5 270 Z " /><path fill="rgb(254,254,255)" stroke="rgb(254,254,255)" stroke-width="1" opacity="0.996078431372549" d="M 393.5 270 L 395 271.5 L 395 293.5 L 394 293.5 L 394 271.5 L 393.5 270 Z " /><path fill="rgb(254,254,255)" stroke="rgb(254,254,255)" stroke-width="1" opacity="0.996078431372549" d="M 657.5 270 L 658 301.5 L 657 301.5 L 657.5 270 Z " /><path fill="rgb(254,254,255)" stroke="rgb(254,254,255)" stroke-width="1" opacity="0.996078431372549" d="M 196.5 271 L 198 271.5 L 196 272 L 197 274.5 L 195 273.5 L 196.5 271 Z " /><path fill="rgb(254,254,255)" stroke="rgb(254,254,255)" stroke-width="1" opacity="0.996078431372549" d="M 259.5 271 L 260 280.5 L 259 280.5 L 259.5 271 Z " /><path fill="rgb(254,254,255)" stroke="rgb(254,254,255)" stroke-width="1" opacity="0.996078431372549" d="M 138.5 272 L 137.5 274 L 138.5 272 Z " /><path fill="rgb(254,254,255)" stroke="rgb(254,254,255)" stroke-width="1" opacity="0.996078431372549" d="M 151.5 272 L 150.5 274 L 151.5 272 Z " /><path fill="rgb(254,254,255)" stroke="rgb(254,254,255)" stroke-width="1" opacity="0.996078431372549" d="M 313.5 272 L 314 279.5 L 313 279.5 L 313.5 272 Z " /><path fill="rgb(254,254,255)" stroke="rgb(254,254,255)" stroke-width="1" opacity="0.996078431372549" d="M 158.5 273 L 159 278.5 L 158 278.5 L 158.5 273 Z " /><path fill="rgb(254,254,255)" stroke="rgb(254,254,255)" stroke-width="1" opacity="0.996078431372549" d="M 215.5 273 L 216.5 275 L 215.5 273 Z " /><path fill="rgb(254,254,255)" stroke="rgb(254,254,255)" stroke-width="1" opacity="0.996078431372549" d="M 407.5 275 L 448 275.5 L 407.5 276 L 407.5 275 Z " /><path fill="rgb(254,254,255)" stroke="rgb(254,254,255)" stroke-width="1" opacity="0.996078431372549" d="M 559.5 275 L 555.5 280 L 559.5 275 Z " /><path fill="rgb(254,254,255)" stroke="rgb(254,254,255)" stroke-width="1" opacity="0.996078431372549" d="M 135.5 277 L 135 278.5 L 134.5 280 L 134 278.5 L 135.5 277 Z " /><path fill="rgb(254,254,255)" stroke="rgb(254,254,255)" stroke-width="1" opacity="0.996078431372549" d="M 203.5 277 L 204.5 279 L 203.5 277 Z " /><path fill="rgb(254,254,255)" stroke="rgb(254,254,255)" stroke-width="1" opacity="0.996078431372549" d="M 475.5 277 L 476 294.5 L 475 294.5 L 475.5 277 Z " /><path fill="rgb(254,254,255)" stroke="rgb(254,254,255)" stroke-width="1" opacity="0.996078431372549" d="M 638.5 277 L 639 281.5 L 638 281.5 L 638.5 277 Z " /><path fill="rgb(254,254,255)" stroke="rgb(254,254,255)" stroke-width="1" opacity="0.996078431372549" d="M 190.5 278 L 190 279.5 L 189.5 282 L 189 279.5 L 190.5 278 Z " /><path fill="rgb(254,254,255)" stroke="rgb(254,254,255)" stroke-width="1" opacity="0.996078431372549" d="M 148.5 280 L 149 283.5 L 148 283.5 L 148.5 280 Z " /><path fill="rgb(254,254,255)" stroke="rgb(254,254,255)" stroke-width="1" opacity="0.996078431372549" d="M 194.5 280 L 195.5 282 L 194.5 280 Z " /><path fill="rgb(254,254,255)" stroke="rgb(254,254,255)" stroke-width="1" opacity="0.996078431372549" d="M 335.5 280 L 339 280.5 L 335.5 281 L 335.5 280 Z " /><path fill="rgb(254,254,255)" stroke="rgb(254,254,255)" stroke-width="1" opacity="0.996078431372549" d="M 352.5 280 L 353.5 282 L 352.5 280 Z " /><path fill="rgb(254,254,255)" stroke="rgb(254,254,255)" stroke-width="1" opacity="0.996078431372549" d="M 407.5 280 L 446.5 280 L 448 281.5 L 447.5 289 L 447 281 L 407.5 281 L 407.5 280 Z " /><path fill="rgb(254,254,255)" stroke="rgb(254,254,255)" stroke-width="1" opacity="0.996078431372549" d="M 649.5 280 L 650 285.5 L 649 285.5 L 649.5 280 Z " /><path fill="rgb(254,254,255)" stroke="rgb(254,254,255)" stroke-width="1" opacity="0.996078431372549" d="M 332.5 281 L 330.5 284 L 332.5 281 Z " /><path fill="rgb(254,254,255)" stroke="rgb(254,254,255)" stroke-width="1" opacity="0.996078431372549" d="M 204.5 283 L 201.5 287 L 204.5 283 Z " /><path fill="rgb(254,254,255)" stroke="rgb(254,254,255)" stroke-width="1" opacity="0.996078431372549" d="M 273.5 283 L 274.5 285 L 273.5 283 Z " /><path fill="rgb(254,254,255)" stroke="rgb(254,254,255)" stroke-width="1" opacity="0.996078431372549" d="M 342.5 283 L 343.5 285 L 342.5 283 Z " /><path fill="rgb(254,254,255)" stroke="rgb(254,254,255)" stroke-width="1" opacity="0.996078431372549" d="M 565.5 283 L 563.5 286 L 565.5 283 Z " /><path fill="rgb(254,254,255)" stroke="rgb(254,254,255)" stroke-width="1" opacity="0.996078431372549" d="M 161.5 284 L 166.5 290 L 161.5 284 Z " /><path fill="rgb(254,254,255)" stroke="rgb(254,254,255)" stroke-width="1" opacity="0.996078431372549" d="M 191.5 285 L 192 287.5 L 191 287.5 L 191.5 285 Z " /><path fill="rgb(254,254,255)" stroke="rgb(254,254,255)" stroke-width="1" opacity="0.996078431372549" d="M 537.5 285 L 540 285.5 L 537.5 286 L 537.5 285 Z " /><path fill="rgb(254,254,255)" stroke="rgb(254,254,255)" stroke-width="1" opacity="0.996078431372549" d="M 637.5 285 L 638 290.5 L 637 290.5 L 637.5 285 Z " /><path fill="rgb(254,254,255)" stroke="rgb(254,254,255)" stroke-width="1" opacity="0.996078431372549" d="M 256.5 286 L 251.5 292 L 256.5 286 Z " /><path fill="rgb(254,254,255)" stroke="rgb(254,254,255)" stroke-width="1" opacity="0.996078431372549" d="M 355.5 286 L 356 288.5 L 355 288.5 L 355.5 286 Z " /><path fill="rgb(254,254,255)" stroke="rgb(254,254,255)" stroke-width="1" opacity="0.996078431372549" d="M 181.5 287 L 183.5 290 L 181.5 287 Z " /><path fill="rgb(254,254,255)" stroke="rgb(254,254,255)" stroke-width="1" opacity="0.996078431372549" d="M 344.5 287 L 345 289.5 L 344 289.5 L 344.5 287 Z " /><path fill="rgb(254,254,255)" stroke="rgb(254,254,255)" stroke-width="1" opacity="0.996078431372549" d="M 222.5 288 L 223 290.5 L 222 290.5 L 222.5 288 Z " /><path fill="rgb(254,254,255)" stroke="rgb(254,254,255)" stroke-width="1" opacity="0.996078431372549" d="M 278.5 288 L 279.5 290 L 278.5 288 Z " /><path fill="rgb(254,254,255)" stroke="rgb(254,254,255)" stroke-width="1" opacity="0.996078431372549" d="M 168.5 290 L 169.5 292 L 168.5 290 Z " /><path fill="rgb(254,254,255)" stroke="rgb(254,254,255)" stroke-width="1" opacity="0.996078431372549" d="M 185.5 290 L 189 290.5 L 185.5 291 L 185.5 290 Z " /><path fill="rgb(254,254,255)" stroke="rgb(254,254,255)" stroke-width="1" opacity="0.996078431372549" d="M 266.5 290 L 271.5 296 L 266.5 290 Z " /><path fill="rgb(254,254,255)" stroke="rgb(254,254,255)" stroke-width="1" opacity="0.996078431372549" d="M 355.5 290 L 356 292.5 L 355 292.5 L 355.5 290 Z " /><path fill="rgb(254,254,255)" stroke="rgb(254,254,255)" stroke-width="1" opacity="0.996078431372549" d="M 537.5 290 L 539.5 293 L 543 293.5 L 539.5 294 Q 535.9 292.9 537.5 290 Z " /><path fill="rgb(254,254,255)" stroke="rgb(254,254,255)" stroke-width="1" opacity="0.996078431372549" d="M 151.5 291 L 152.5 293 L 151.5 291 Z " /><path fill="rgb(254,254,255)" stroke="rgb(254,254,255)" stroke-width="1" opacity="0.996078431372549" d="M 377.5 291 L 385 291.5 L 377.5 292 L 377.5 291 Z " /><path fill="rgb(254,254,255)" stroke="rgb(254,254,255)" stroke-width="1" opacity="0.996078431372549" d="M 603.5 291 L 604 297.5 L 603 297.5 L 603.5 291 Z " /><path fill="rgb(254,254,255)" stroke="rgb(254,254,255)" stroke-width="1" opacity="0.996078431372549" d="M 171.5 292 L 172.5 294 L 171.5 292 Z " /><path fill="rgb(254,254,255)" stroke="rgb(254,254,255)" stroke-width="1" opacity="0.996078431372549" d="M 249.5 292 L 248.5 294 L 249.5 292 Z " /><path fill="rgb(254,254,255)" stroke="rgb(254,254,255)" stroke-width="1" opacity="0.996078431372549" d="M 264.5 292 L 260.5 297 L 264.5 292 Z " /><path fill="rgb(254,254,255)" stroke="rgb(254,254,255)" stroke-width="1" opacity="0.996078431372549" d="M 488.5 292 L 489 294.5 L 488 294.5 L 488.5 292 Z " /><path fill="rgb(254,254,255)" stroke="rgb(254,254,255)" stroke-width="1" opacity="0.996078431372549" d="M 223.5 294 L 224 304.5 L 223 304.5 L 223.5 294 Z " /><path fill="rgb(254,254,255)" stroke="rgb(254,254,255)" stroke-width="1" opacity="0.996078431372549" d="M 342.5 294 L 341.5 296 L 342.5 294 Z " /><path fill="rgb(254,254,255)" stroke="rgb(254,254,255)" stroke-width="1" opacity="0.996078431372549" d="M 243.5 295 L 245 295.5 L 242.5 297 L 243.5 295 Z " /><path fill="rgb(254,254,255)" stroke="rgb(254,254,255)" stroke-width="1" opacity="0.996078431372549" d="M 273.5 296 L 274.5 298 L 273.5 296 Z " /><path fill="rgb(254,254,255)" stroke="rgb(254,254,255)" stroke-width="1" opacity="0.996078431372549" d="M 395.5 296 L 397 298.5 L 395 297.5 L 395.5 296 Z " /><path fill="rgb(254,254,255)" stroke="rgb(254,254,255)" stroke-width="1" opacity="0.996078431372549" d="M 474.5 296 L 475 298.5 L 474 298.5 L 474.5 296 Z " /><path fill="rgb(254,254,255)" stroke="rgb(254,254,255)" stroke-width="1" opacity="0.996078431372549" d="M 601.5 296 L 602 303.5 L 601 303.5 L 601.5 296 Z " /><path fill="rgb(254,254,255)" stroke="rgb(254,254,255)" stroke-width="1" opacity="0.996078431372549" d="M 520.5 297 L 521 333.5 L 520 333.5 L 520.5 297 Z " /><path fill="rgb(254,254,255)" stroke="rgb(254,254,255)" stroke-width="1" opacity="0.996078431372549" d="M 158.5 298 L 160.5 301 L 158.5 298 Z " /><path fill="rgb(254,254,255)" stroke="rgb(254,254,255)" stroke-width="1" opacity="0.996078431372549" d="M 257.5 298 L 256.5 300 L 257.5 298 Z " /><path fill="rgb(254,254,255)" stroke="rgb(254,254,255)" stroke-width="1" opacity="0.996078431372549" d="M 320.5 298 L 324.5 303 L 320.5 298 Z " /><path fill="rgb(254,254,255)" stroke="rgb(254,254,255)" stroke-width="1" opacity="0.996078431372549" d="M 649.5 298 L 652 298.5 L 649.5 299 L 649.5 298 Z " /><path fill="rgb(254,254,255)" stroke="rgb(254,254,255)" stroke-width="1" opacity="0.996078431372549" d="M 621.5 299 L 622 309.5 L 621 309.5 L 621.5 299 Z " /><path fill="rgb(254,254,255)" stroke="rgb(254,254,255)" stroke-width="1" opacity="0.996078431372549" d="M 243.5 300 L 244.5 302 L 243.5 300 Z " /><path fill="rgb(254,254,255)" stroke="rgb(254,254,255)" stroke-width="1" opacity="0.996078431372549" d="M 286.5 300 L 285.5 302 L 282 301.5 L 286.5 300 Z " /><path fill="rgb(254,254,255)" stroke="rgb(254,254,255)" stroke-width="1" opacity="0.996078431372549" d="M 403.5 302 L 449 302.5 L 403.5 303 L 403.5 302 Z " /><path fill="rgb(254,254,255)" stroke="rgb(254,254,255)" stroke-width="1" opacity="0.996078431372549" d="M 165.5 303 L 166.5 305 L 165.5 303 Z " /><path fill="rgb(254,254,255)" stroke="rgb(254,254,255)" stroke-width="1" opacity="0.996078431372549" d="M 190.5 303 L 191.5 305 L 190.5 303 Z " /><path fill="rgb(254,254,255)" stroke="rgb(254,254,255)" stroke-width="1" opacity="0.996078431372549" d="M 492.5 303 L 494.5 306 L 492.5 303 Z " /><path fill="rgb(254,254,255)" stroke="rgb(254,254,255)" stroke-width="1" opacity="0.996078431372549" d="M 471.5 304 L 468.5 308 L 471.5 304 Z " /><path fill="rgb(254,254,255)" stroke="rgb(254,254,255)" stroke-width="1" opacity="0.996078431372549" d="M 333.5 305 L 340 305.5 L 333.5 306 L 333.5 305 Z " /><path fill="rgb(254,254,255)" stroke="rgb(254,254,255)" stroke-width="1" opacity="0.996078431372549" d="M 482.5 305 L 486 309.5 L 483 307.5 L 482.5 305 Z " /><path fill="rgb(254,254,255)" stroke="rgb(254,254,255)" stroke-width="1" opacity="0.996078431372549" d="M 130.5 306 L 131 308.5 L 130 308.5 L 130.5 306 Z " /><path fill="rgb(254,254,255)" stroke="rgb(254,254,255)" stroke-width="1" opacity="0.996078431372549" d="M 559.5 306 L 574 306.5 L 559.5 307 L 559.5 306 Z " /><path fill="rgb(254,254,255)" stroke="rgb(254,254,255)" stroke-width="1" opacity="0.996078431372549" d="M 196.5 307 L 200.5 312 L 196.5 307 Z " /><path fill="rgb(254,254,255)" stroke="rgb(254,254,255)" stroke-width="1" opacity="0.996078431372549" d="M 265.5 307 L 266 322.5 L 265 322.5 L 265.5 307 Z " /><path fill="rgb(254,254,255)" stroke="rgb(254,254,255)" stroke-width="1" opacity="0.996078431372549" d="M 387.5 307 L 456 307.5 L 387.5 308 L 387.5 307 Z " /><path fill="rgb(254,254,255)" stroke="rgb(254,254,255)" stroke-width="1" opacity="0.996078431372549" d="M 498.5 309 L 500.5 312 L 498.5 309 Z " /><path fill="rgb(254,254,255)" stroke="rgb(254,254,255)" stroke-width="1" opacity="0.996078431372549" d="M 336.5 310 L 337 322.5 L 336 322.5 L 336.5 310 Z " /><path fill="rgb(254,254,255)" stroke="rgb(254,254,255)" stroke-width="1" opacity="0.996078431372549" d="M 479.5 310 L 478.5 312 L 479.5 310 Z " /><path fill="rgb(254,254,255)" stroke="rgb(254,254,255)" stroke-width="1" opacity="0.996078431372549" d="M 253.5 311 L 254 323.5 L 253 323.5 L 253.5 311 Z " /><path fill="rgb(254,254,255)" stroke="rgb(254,254,255)" stroke-width="1" opacity="0.996078431372549" d="M 464.5 311 L 461.5 315 L 464.5 311 Z " /><path fill="rgb(254,254,255)" stroke="rgb(254,254,255)" stroke-width="1" opacity="0.996078431372549" d="M 486.5 311 L 493.5 319 L 486.5 311 Z " /><path fill="rgb(254,254,255)" stroke="rgb(254,254,255)" stroke-width="1" opacity="0.996078431372549" d="M 544.5 311 L 541.5 315 L 544.5 311 Z " /><path fill="rgb(254,254,255)" stroke="rgb(254,254,255)" stroke-width="1" opacity="0.996078431372549" d="M 181.5 312 L 182.5 314 L 181.5 312 Z " /><path fill="rgb(254,254,255)" stroke="rgb(254,254,255)" stroke-width="1" opacity="0.996078431372549" d="M 502.5 312 L 503.5 314 L 502.5 312 Z " /><path fill="rgb(254,254,255)" stroke="rgb(254,254,255)" stroke-width="1" opacity="0.996078431372549" d="M 590.5 312 L 592.5 315 L 590.5 312 Z " /><path fill="rgb(254,254,255)" stroke="rgb(254,254,255)" stroke-width="1" opacity="0.996078431372549" d="M 158.5 313 L 159.5 315 L 158.5 313 Z " /><path fill="rgb(254,254,255)" stroke="rgb(254,254,255)" stroke-width="1" opacity="0.996078431372549" d="M 613.5 313 L 627 313.5 L 613.5 314 L 612.5 315 L 613.5 313 Z " /><path fill="rgb(254,254,255)" stroke="rgb(254,254,255)" stroke-width="1" opacity="0.996078431372549" d="M 144.5 314 L 145 316.5 L 144 316.5 L 144.5 314 Z " /><path fill="rgb(254,254,255)" stroke="rgb(254,254,255)" stroke-width="1" opacity="0.996078431372549" d="M 147.5 314 L 148.5 316 L 147.5 314 Z " /><path fill="rgb(254,254,255)" stroke="rgb(254,254,255)" stroke-width="1" opacity="0.996078431372549" d="M 324.5 314 L 325 326.5 L 324 326.5 L 324.5 314 Z " /><path fill="rgb(254,254,255)" stroke="rgb(254,254,255)" stroke-width="1" opacity="0.996078431372549" d="M 476.5 314 L 472.5 319 L 476.5 314 Z " /><path fill="rgb(254,254,255)" stroke="rgb(254,254,255)" stroke-width="1" opacity="0.996078431372549" d="M 505.5 314 L 506 315.5 L 504 316.5 L 505.5 314 Z " /><path fill="rgb(254,254,255)" stroke="rgb(254,254,255)" stroke-width="1" opacity="0.996078431372549" d="M 562.5 314 L 572 314.5 L 562.5 315 L 562.5 314 Z " /><path fill="rgb(254,254,255)" stroke="rgb(254,254,255)" stroke-width="1" opacity="0.996078431372549" d="M 186.5 315 L 191.5 321 L 186.5 315 Z " /><path fill="rgb(254,254,255)" stroke="rgb(254,254,255)" stroke-width="1" opacity="0.996078431372549" d="M 459.5 315 L 458.5 319 Q 455 317 459.5 315 Z " /><path fill="rgb(254,254,255)" stroke="rgb(254,254,255)" stroke-width="1" opacity="0.996078431372549" d="M 415.5 316 L 416 333.5 L 415 333.5 L 415.5 316 Z " /><path fill="rgb(254,254,255)" stroke="rgb(254,254,255)" stroke-width="1" opacity="0.996078431372549" d="M 427.5 316 L 428 333.5 L 427 333.5 L 427.5 316 Z " /><path fill="rgb(254,254,255)" stroke="rgb(254,254,255)" stroke-width="1" opacity="0.996078431372549" d="M 613.5 316 L 615 317.5 L 615 326.5 L 614 326.5 Q 614.8 318.3 613.5 316 Z " /><path fill="rgb(254,254,255)" stroke="rgb(254,254,255)" stroke-width="1" opacity="0.996078431372549" d="M 160.5 317 L 161 319.5 L 160 319.5 L 160.5 317 Z " /><path fill="rgb(254,254,255)" stroke="rgb(254,254,255)" stroke-width="1" opacity="0.996078431372549" d="M 203.5 318 L 204 321.5 L 203 321.5 L 203.5 318 Z " /><path fill="rgb(254,254,255)" stroke="rgb(254,254,255)" stroke-width="1" opacity="0.996078431372549" d="M 503.5 318 L 502.5 320 L 503.5 318 Z " /><path fill="rgb(254,254,255)" stroke="rgb(254,254,255)" stroke-width="1" opacity="0.996078431372549" d="M 539.5 318 L 540 323.5 L 539 323.5 L 539.5 318 Z " /><path fill="rgb(254,254,255)" stroke="rgb(254,254,255)" stroke-width="1" opacity="0.996078431372549" d="M 581.5 318 Q 583.8 318.8 583 322.5 L 580 324.5 Q 582.8 323.8 582 319.5 L 581.5 318 Z " /><path fill="rgb(254,254,255)" stroke="rgb(254,254,255)" stroke-width="1" opacity="0.996078431372549" d="M 495.5 319 L 496.5 321 L 495.5 319 Z " /><path fill="rgb(254,254,255)" stroke="rgb(254,254,255)" stroke-width="1" opacity="0.996078431372549" d="M 469.5 320 L 467.5 323 L 469.5 320 Z " /><path fill="rgb(254,254,255)" stroke="rgb(254,254,255)" stroke-width="1" opacity="0.996078431372549" d="M 146.5 321 L 147.5 323 L 146.5 321 Z " /><path fill="rgb(254,254,255)" stroke="rgb(254,254,255)" stroke-width="1" opacity="0.996078431372549" d="M 460.5 321 L 462.5 324 L 460.5 321 Z " /><path fill="rgb(254,254,255)" stroke="rgb(254,254,255)" stroke-width="1" opacity="0.996078431372549" d="M 551.5 321 L 554 324.5 L 551 322.5 L 551.5 321 Z " /><path fill="rgb(254,254,255)" stroke="rgb(254,254,255)" stroke-width="1" opacity="0.996078431372549" d="M 135.5 322 L 136.5 324 L 135.5 322 Z " /><path fill="rgb(254,254,255)" stroke="rgb(254,254,255)" stroke-width="1" opacity="0.996078431372549" d="M 216.5 324 L 215.5 326 L 216.5 324 Z " /><path fill="rgb(254,254,255)" stroke="rgb(254,254,255)" stroke-width="1" opacity="0.996078431372549" d="M 267.5 324 L 308 324.5 L 267.5 325 L 267.5 324 Z " /><path fill="rgb(254,254,255)" stroke="rgb(254,254,255)" stroke-width="1" opacity="0.996078431372549" d="M 338.5 324 L 378 324.5 L 338.5 325 L 338.5 324 Z " /><path fill="rgb(254,254,255)" stroke="rgb(254,254,255)" stroke-width="1" opacity="0.996078431372549" d="M 137.5 325 L 138.5 327 L 137.5 325 Z " /><path fill="rgb(254,254,255)" stroke="rgb(254,254,255)" stroke-width="1" opacity="0.996078431372549" d="M 171.5 326 L 170.5 328 L 171.5 326 Z " /><path fill="rgb(254,254,255)" stroke="rgb(254,254,255)" stroke-width="1" opacity="0.996078431372549" d="M 557.5 326 L 560 326.5 L 557.5 327 L 557.5 326 Z " /><path fill="rgb(254,254,255)" stroke="rgb(254,254,255)" stroke-width="1" opacity="0.996078431372549" d="M 150.5 327 L 152.5 330 L 150.5 327 Z " /><path fill="rgb(254,254,255)" stroke="rgb(254,254,255)" stroke-width="1" opacity="0.996078431372549" d="M 201.5 327 L 196.5 333 L 201.5 327 Z " /><path fill="rgb(254,254,255)" stroke="rgb(254,254,255)" stroke-width="1" opacity="0.996078431372549" d="M 214.5 327 L 212.5 330 L 214.5 327 Z " /><path fill="rgb(254,254,255)" stroke="rgb(254,254,255)" stroke-width="1" opacity="0.996078431372549" d="M 541.5 327 L 543.5 330 L 541.5 327 Z " /><path fill="rgb(254,254,255)" stroke="rgb(254,254,255)" stroke-width="1" opacity="0.996078431372549" d="M 140.5 329 L 146.5 336 L 140.5 329 Z " /><path fill="rgb(254,254,255)" stroke="rgb(254,254,255)" stroke-width="1" opacity="0.996078431372549" d="M 326.5 330 L 327.5 332 L 326.5 330 Z " /><path fill="rgb(254,254,255)" stroke="rgb(254,254,255)" stroke-width="1" opacity="0.996078431372549" d="M 545.5 330 L 546.5 332 L 545.5 330 Z " /><path fill="rgb(254,254,255)" stroke="rgb(254,254,255)" stroke-width="1" opacity="0.996078431372549" d="M 616.5 330 L 617.5 332 L 616.5 330 Z " /><path fill="rgb(254,254,255)" stroke="rgb(254,254,255)" stroke-width="1" opacity="0.996078431372549" d="M 155.5 331 L 156.5 333 L 155.5 331 Z " /><path fill="rgb(254,254,255)" stroke="rgb(254,254,255)" stroke-width="1" opacity="0.996078431372549" d="M 191.5 333 L 192.5 335 L 190 334.5 L 191.5 333 Z " /><path fill="rgb(254,254,255)" stroke="rgb(254,254,255)" stroke-width="1" opacity="0.996078431372549" d="M 207.5 334 L 205.5 337 L 207.5 334 Z " /><path fill="rgb(254,254,255)" stroke="rgb(254,254,255)" stroke-width="1" opacity="0.996078431372549" d="M 555.5 334 L 558 334.5 L 555.5 335 L 555.5 334 Z " /><path fill="rgb(254,254,255)" stroke="rgb(254,254,255)" stroke-width="1" opacity="0.996078431372549" d="M 576.5 334 L 579 334.5 L 576.5 335 L 576.5 334 Z " /><path fill="rgb(254,254,255)" stroke="rgb(254,254,255)" stroke-width="1" opacity="0.996078431372549" d="M 564.5 335 L 569 335.5 L 564.5 336 L 564.5 335 Z " /><path fill="rgb(254,254,255)" stroke="rgb(254,254,255)" stroke-width="1" opacity="0.996078431372549" d="M 165.5 336 L 168 336.5 L 165.5 337 L 165.5 336 Z " /><path fill="rgb(254,254,255)" stroke="rgb(254,254,255)" stroke-width="1" opacity="0.996078431372549" d="M 149.5 337 L 150.5 339 L 149.5 337 Z " /><path fill="rgb(254,254,255)" stroke="rgb(254,254,255)" stroke-width="1" opacity="0.996078431372549" d="M 172.5 337 L 177 337.5 L 172.5 338 L 172.5 337 Z " /><path fill="rgb(254,254,255)" stroke="rgb(254,254,255)" stroke-width="1" opacity="0.996078431372549" d="M 202.5 338 L 201.5 340 L 202.5 338 Z " /><path fill="rgb(254,254,255)" stroke="rgb(254,254,255)" stroke-width="1" opacity="0.996078431372549" d="M 167.5 345 L 170 345.5 L 167.5 346 L 167.5 345 Z " /><path fill="rgb(255,255,255)" stroke="rgb(255,255,255)" stroke-width="1" opacity="1" d="M 0 0 L 800 0 L 800 600 L 0 600 L 0 0 Z M 168 253 Q 155 256 147 263 Q 134 272 130 291 Q 128 317 140 330 Q 150 342 168 346 L 186 346 Q 198 344 206 337 Q 220 326 224 305 L 223 289 L 215 272 Q 207 262 196 256 Q 185 251 168 253 Z M 329 264 L 331 269 L 331 272 L 313 272 L 313 280 L 320 280 L 317 290 L 320 299 L 325 303 L 334 306 L 345 305 L 352 301 L 356 293 Q 357 284 353 281 L 360 280 L 360 272 L 344 272 L 343 272 L 343 264 L 329 264 Z M 292 266 L 294 270 L 294 311 L 295 311 L 307 311 L 307 266 L 292 266 Z M 363 266 L 365 272 L 365 312 L 377 312 L 377 292 L 385 292 L 385 283 L 378 283 L 377 283 L 377 266 L 363 266 Z M 506 266 L 508 271 L 508 334 L 521 334 L 521 298 L 522 297 L 530 297 L 530 288 L 522 288 L 521 288 L 521 266 L 506 266 Z M 540 266 L 540 275 L 559 276 L 551 282 L 535 287 L 540 294 Q 557 292 567 283 L 584 292 L 595 293 L 597 285 Q 582 284 574 276 L 594 275 L 594 267 L 594 266 L 540 266 Z M 655 266 L 657 270 L 657 302 L 641 302 L 641 310 L 657 310 Q 658 310 657 315 L 659 316 L 670 316 L 670 267 L 670 266 L 655 266 Z M 259 267 Q 255 269 259 271 Q 260 279 258 285 Q 252 293 242 297 L 245 304 L 249 304 L 261 297 L 265 291 L 275 298 L 283 302 L 286 302 L 290 295 L 278 288 L 272 280 L 272 267 L 259 267 Z M 394 267 L 392 269 L 394 272 L 394 294 L 395 298 L 400 302 L 404 303 L 449 303 L 449 303 L 449 294 L 409 294 L 407 293 L 408 289 L 448 289 L 448 289 L 448 282 L 447 280 L 407 280 L 408 276 L 448 276 L 448 268 L 448 267 L 394 267 Z M 461 268 L 461 277 L 475 277 L 475 296 Q 473 304 468 309 L 457 318 L 463 324 Q 470 324 473 319 L 483 306 L 486 312 L 497 321 L 502 322 L 506 314 L 498 309 Q 490 303 488 292 L 488 277 L 502 277 L 502 269 L 502 268 L 461 268 Z M 609 268 L 609 276 L 610 276 L 638 276 L 638 285 L 637 286 Q 638 291 637 291 L 603 291 Q 601 297 605 299 L 621 299 L 621 310 L 633 310 L 633 299 L 652 299 L 655 298 L 655 291 L 649 291 L 650 286 L 650 271 L 647 268 L 609 268 Z M 532 296 L 532 304 L 533 304 L 602 304 L 602 297 L 602 296 L 532 296 Z M 560 306 L 551 308 L 545 311 L 539 319 Q 538 325 541 328 L 552 334 L 564 335 L 565 336 L 579 335 L 589 331 L 594 325 Q 595 318 593 315 L 584 308 L 574 306 L 560 306 Z M 252 307 L 253 311 L 254 329 L 260 333 L 308 333 L 308 325 L 308 324 L 266 324 L 266 307 L 252 307 Z M 387 307 L 387 316 L 388 316 L 415 316 L 415 334 L 428 334 L 428 316 L 456 316 L 456 308 L 456 307 L 387 307 Z M 322 310 L 324 314 L 324 327 L 326 331 L 331 333 L 378 333 L 378 324 L 338 324 L 337 324 L 337 310 L 322 310 Z M 614 313 L 612 315 L 614 318 Q 613 327 616 331 L 620 333 L 670 333 L 670 333 L 670 325 L 630 325 L 629 324 L 627 324 L 627 313 L 614 313 Z " /><path fill="rgb(255,255,255)" stroke="rgb(255,255,255)" stroke-width="1" opacity="1" d="M 163.5 263 L 166 263.5 Q 158.3 267.3 158 278.5 Q 160.6 285.9 166.5 290 L 194.5 306 L 201 312.5 Q 204.3 316.2 203 324.5 L 195.5 333 L 191.5 335 L 192 333.5 Q 194.8 330.8 194 324.5 L 186.5 315 L 162.5 302 L 153 293.5 Q 147.7 288.8 149 277.5 Q 151.6 270.1 157.5 266 L 163.5 263 Z " /><path fill="rgb(255,255,255)" stroke="rgb(255,255,255)" stroke-width="1" opacity="1" d="M 178.5 264 Q 184.3 267.3 194.5 266 L 201 269 L 202 273 L 196.5 271 L 195 273.5 L 205 279.5 L 205 282.5 L 200.5 287 L 197 284.5 L 192.5 278 L 189 279.5 L 191 284.5 L 191 288.5 Q 189.8 291.3 184.5 290 Q 178.8 287.1 180 277.5 L 181 276.5 L 181 268.5 L 178.5 264 Z " /><path fill="rgb(255,255,255)" stroke="rgb(255,255,255)" stroke-width="1" opacity="1" d="M 333.5 281 Q 339.6 280.3 342 282 L 344 285.5 L 344 291.5 L 340.5 296 L 334.5 297 L 331 294.5 L 329 287.5 L 333.5 281 Z " /><path fill="rgb(255,255,255)" stroke="rgb(255,255,255)" stroke-width="1" opacity="1" d="M 145.5 312 L 150 319 L 153.5 320 L 157.5 314 L 160 315.5 L 161 324 L 173 321 L 169 332 L 179 336.5 L 168.5 337 Q 155.6 334.4 149 325.5 L 144 313.5 L 145.5 312 Z " /><path fill="rgb(255,255,255)" stroke="rgb(255,255,255)" stroke-width="1" opacity="1" d="M 558.5 315 L 575.5 315 L 581 317 L 582 322.5 Q 575.8 329.3 560.5 327 L 554.5 325 L 552 322.5 L 551 320.5 L 553.5 317 L 558.5 315 Z " /></svg>